<svg xmlns="http://www.w3.org/2000/svg" viewBox="0 0 82 82"><defs><style>.cls-1{fill:#4c2a4b;}.cls-2,.cls-3{fill:#fff;}.cls-2{fill-rule:evenodd;}</style></defs><title>git</title><g id="Layer_1" data-name="Layer 1"><rect id="bg" class="cls-1" width="82" height="82"/></g><g id="icon"><path class="cls-2" d="M41,17.22a24.39,24.39,0,0,0-7.71,47.53C34.51,65,35,64.21,35,63.57s0-2.5,0-4.54c-6.78,1.48-8.22-2.88-8.22-2.88C25.6,53.33,24,52.58,24,52.58c-2.21-1.51.17-1.48.17-1.48a5.13,5.13,0,0,1,3.74,2.51c2.17,3.73,5.7,2.65,7.1,2a5.19,5.19,0,0,1,1.55-3.26c-5.42-.62-11.11-2.71-11.11-12.05A9.44,9.44,0,0,1,28,33.78a8.76,8.76,0,0,1,.24-6.45s2-.66,6.71,2.5a23.12,23.12,0,0,1,12.21,0c4.65-3.16,6.7-2.5,6.7-2.5A8.75,8.75,0,0,1,54,33.78a9.42,9.42,0,0,1,2.51,6.55c0,9.37-5.7,11.43-11.14,12a5.83,5.83,0,0,1,1.65,4.52c0,3.26,0,5.89,0,6.69,0,.65.44,1.41,1.67,1.17A24.39,24.39,0,0,0,41,17.22Z"/><path class="cls-3" d="M25.85,52.23c-.05.12-.24.16-.42.07s-.28-.24-.22-.37.24-.16.42-.08.28.25.22.37Zm-.3-.22"/><path class="cls-3" d="M26.84,53.33c-.12.11-.34.06-.5-.11a.37.37,0,0,1-.07-.51c.12-.11.34-.06.5.11s.19.4.07.51Zm-.23-.25"/><path class="cls-3" d="M27.8,54.74c-.15.1-.39,0-.55-.21s-.15-.48,0-.58.39,0,.55.2.15.48,0,.59Zm0,0"/><path class="cls-3" d="M29.12,56.09c-.13.15-.42.11-.63-.09a.47.47,0,0,1-.14-.62c.14-.15.42-.11.63.09s.28.48.13.62Zm0,0"/><path class="cls-3" d="M30.93,56.88c-.06.19-.33.28-.61.2s-.46-.31-.4-.5.33-.28.61-.2.46.31.4.5Zm0,0"/><path class="cls-3" d="M32.93,57c0,.2-.23.37-.52.37s-.53-.16-.53-.35.23-.37.52-.37.53.16.53.36Zm0,0"/><path class="cls-3" d="M34.79,56.71c0,.2-.17.4-.45.45s-.55-.07-.58-.26.17-.4.45-.45.55.07.58.27Zm0,0"/></g></svg>