<svg xmlns="http://www.w3.org/2000/svg" viewBox="0 0 82 82"><defs><style>.cls-1{fill:#4c2a4b;}.cls-2{fill:#fff;}</style></defs><title>twitter</title><g id="Layer_1" data-name="Layer 1"><rect id="bg" class="cls-1" width="82" height="82"/></g><g id="icon"><path class="cls-2" d="M59.06,31.78a14.8,14.8,0,0,1-4.24,1.16,7.38,7.38,0,0,0,3.25-4.08,14.73,14.73,0,0,1-4.69,1.79A7.39,7.39,0,0,0,40.6,35.7a7.28,7.28,0,0,0,.19,1.68,21,21,0,0,1-15.22-7.72,7.4,7.4,0,0,0,2.29,9.86,7.4,7.4,0,0,1-3.35-.92v.09a7.39,7.39,0,0,0,5.93,7.24,7.2,7.2,0,0,1-1.95.26,7.31,7.31,0,0,1-1.39-.13A7.38,7.38,0,0,0,34,51.2a14.94,14.94,0,0,1-10.93,3.06,20.92,20.92,0,0,0,11.32,3.32c13.59,0,21-11.25,21-21,0-.32,0-.64,0-1a15,15,0,0,0,3.69-3.82"/></g></svg>